<?xml version="1.0" encoding="utf-8"?>
<!-- Generator: Adobe Illustrator 22.0.0, SVG Export Plug-In . SVG Version: 6.00 Build 0)  -->
<svg version="1.1" id="Livello_1" focusable="false"
	 xmlns="http://www.w3.org/2000/svg" xmlns:xlink="http://www.w3.org/1999/xlink" x="0px" y="0px" viewBox="0 0 640 512"
	 style="enable-background:new 0 0 640 512;" xml:space="preserve">
<style type="text/css">
	.st0{fill:#333333;}
</style>
<path class="st0" d="M433.5,165.9l81.2-111.9c20-20,45.8-54.1,17.6-54.1H31.7C3.5,0,19.4,34.1,39.3,54.1L242,276v155.9
	c0,12.6,5.9,24.4,16,32l30,40c20.9,15.6,48.5,7,59.2-13.6c-36.4-35-59.2-84-59.2-138.3C288,262.2,350,186.8,433.5,165.9L433.5,165.9
	z M480,192c-88.4,0-160,71.6-160,160s71.6,160,160,160s160-71.6,160-160S568.4,192,480,192z M496,431.9V448c0,4.4-3.6,8-8,8h-16
	c-4.4,0-8-3.6-8-8v-16.3c-11.3-0.6-22.3-4.5-31.4-11.4c-3.9-2.9-4.1-8.8-0.6-12.1l11.8-11.2c2.8-2.6,6.9-2.8,10.1-0.7
	c3.9,2.4,8.3,3.7,12.8,3.7h28.1c6.5,0,11.8-5.9,11.8-13.2c0-6-3.6-11.2-8.8-12.7l-45-13.5c-18.6-5.6-31.6-23.4-31.6-43.4
	c0-24.5,19-44.4,42.7-45.1V256c0-4.4,3.6-8,8-8h16c4.4,0,8,3.6,8,8v16.3c11.3,0.6,22.3,4.5,31.4,11.4c3.9,2.9,4.1,8.8,0.6,12.1
	L516.2,307c-2.8,2.6-6.9,2.8-10.1,0.7c-3.9-2.4-8.3-3.7-12.8-3.7h-28.1c-6.5,0-11.8,5.9-11.8,13.2c0,6,3.6,11.2,8.8,12.7l45,13.5
	c18.6,5.6,31.6,23.4,31.6,43.4C538.7,411.3,519.6,431.3,496,431.9L496,431.9z"/>
</svg>
