<?xml version="1.0" encoding="utf-8"?>
<!-- Generator: Adobe Illustrator 22.0.0, SVG Export Plug-In . SVG Version: 6.00 Build 0)  -->
<svg version="1.1" id="Livello_1" xmlns="http://www.w3.org/2000/svg" xmlns:xlink="http://www.w3.org/1999/xlink" x="0px" y="0px"
	 viewBox="0 0 342 53.8" style="enable-background:new 0 0 342 53.8;" xml:space="preserve">
<style type="text/css">
	.st0{fill:none;stroke:#C10202;stroke-width:4;stroke-miterlimit:10;}
	.st1{fill:#C10202;}
	.st2{fill:#4F4F4F;}
	.st3{fill:none;stroke:#C10202;stroke-width:5;stroke-miterlimit:10;}
</style>
<g>
	<path class="st1" d="M82.3-0.2L65.9,53.1H52.2L41.7,18.8L31.1,53.1H17.4L1-0.2h11.6l11.6,38.2L35.8-0.2h11.6l11.6,38.2L70.6-0.2
		H82.3z"/>
	<path class="st1" d="M98,10.5v10.4h15.5v10.7H98v10.8h19.5v10.7H86.6V-0.2h30.9v10.7H98z"/>
	<path class="st1" d="M162.5,37.3c0,10.1-8,15.8-19.2,15.8h-18.5V-0.2h17.2c11.1,0,17.6,6.1,17.6,14.7c0,4.1-2,7.5-4.9,10.1
		C159,27.4,162.5,31.7,162.5,37.3z M136,20h5.9c3.7,0,6.2-1.4,6.2-4.7c0-3.2-2.6-4.7-6.2-4.7H136V20z M151.1,36.6c0-3.5-2.8-6-7.7-6
		H136v11.8h7.2C148.3,42.4,151.1,40.2,151.1,36.6z"/>
</g>
<g>
	<g>
		<path class="st2" d="M178.8,4.2v19.4h19V27h-19v25.6h-3.5V0.8h26.5v3.4H178.8z"/>
		<path class="st2" d="M209.9,0.8h3.5v51.8h-3.5V0.8z"/>
		<path class="st2" d="M245.9,26.7l19.6,25.9h-4.3l-17.4-23.1l-17.4,23.1h-4.3l19.6-25.9L222.1,0.8h4.3l17.4,23.1l17.4-23.1h4.3
			L245.9,26.7z"/>
		<path class="st2" d="M275.3,4.2v19.6h17.6v3.4h-17.6v22.1h23v3.4h-26.5V0.8h26.5v3.4H275.3z"/>
		<path class="st2" d="M324.7,34.2h-13.6v18.5h-3.5V0.8H325c8.2,0,15.8,6.3,15.8,16.7c0,8.8-5.5,14.7-12.4,16.3L341,52.6h-4.1
			L324.7,34.2z M311.1,30.8H325c6.4,0,12.3-5,12.3-13.3c0-8.4-5.9-13.4-12.3-13.4h-13.9V30.8z"/>
	</g>
</g>
</svg>
